<svg width="24" height="26" viewBox="0 0 24 26" fill="none" xmlns="http://www.w3.org/2000/svg">
<path d="M12 23.3044C12 23.6037 12.2241 23.8478 12.4999 23.833C17.7905 23.5507 22 18.8115 22 13.0067C22 7.02008 17.5228 2.16699 12 2.16699C6.47715 2.16699 2 7.02008 2 13.0067C2 18.0201 5.13989 22.2386 9.40433 23.4776C9.70966 23.5664 10 23.3091 10 22.9665V15.1746H9C8.44771 15.1746 8 14.6893 8 14.0906C8 13.492 8.44772 13.0067 9 13.0067H10V10.8387C10 9.04277 11.3431 7.58683 13 7.58683H14C14.5523 7.58683 15 8.07215 15 8.6708C15 9.26947 14.5523 9.75477 14 9.75477H13C12.4477 9.75477 12 10.2401 12 10.8387V13.0067H14C14.5523 13.0067 15 13.492 15 14.0906C15 14.6893 14.5523 15.1746 14 15.1746H12V23.3044Z" fill="white"/>
</svg>
