<svg width="20" height="22" viewBox="0 0 20 22" fill="none" xmlns="http://www.w3.org/2000/svg">
<path d="M10 21.3044C10 21.6037 10.2241 21.8478 10.4999 21.833C15.7905 21.5507 20 16.8115 20 11.0067C20 5.02008 15.5228 0.166992 10 0.166992C4.47715 0.166992 0 5.02008 0 11.0067C0 16.0201 3.13989 20.2386 7.40433 21.4776C7.70966 21.5664 8 21.3091 8 20.9665V13.1746H7C6.44771 13.1746 6 12.6893 6 12.0906C6 11.492 6.44772 11.0067 7 11.0067H8V8.83874C8 7.04277 9.3431 5.58683 11 5.58683H12C12.5523 5.58683 13 6.07215 13 6.6708C13 7.26947 12.5523 7.75477 12 7.75477H11C10.4477 7.75477 10 8.24008 10 8.83874V11.0067H12C12.5523 11.0067 13 11.492 13 12.0906C13 12.6893 12.5523 13.1746 12 13.1746H10V21.3044Z" fill="white"/>
</svg>
